%TF.GenerationSoftware,KiCad,Pcbnew,(5.1.8)-1*%
%TF.CreationDate,2023-04-27T14:44:06+02:00*%
%TF.ProjectId,Compteur_palonniers,436f6d70-7465-4757-925f-70616c6f6e6e,rev?*%
%TF.SameCoordinates,PX6dac2c0PY7bfa480*%
%TF.FileFunction,Copper,L2,Bot*%
%TF.FilePolarity,Positive*%
%FSLAX46Y46*%
G04 Gerber Fmt 4.6, Leading zero omitted, Abs format (unit mm)*
G04 Created by KiCad (PCBNEW (5.1.8)-1) date 2023-04-27 14:44:06*
%MOMM*%
%LPD*%
G01*
G04 APERTURE LIST*
%TA.AperFunction,ComponentPad*%
%ADD10C,2.300000*%
%TD*%
%TA.AperFunction,ComponentPad*%
%ADD11C,3.000000*%
%TD*%
%TA.AperFunction,ComponentPad*%
%ADD12R,3.000000X3.000000*%
%TD*%
%TA.AperFunction,ComponentPad*%
%ADD13C,2.000000*%
%TD*%
%TA.AperFunction,ComponentPad*%
%ADD14R,2.000000X2.000000*%
%TD*%
%TA.AperFunction,ComponentPad*%
%ADD15O,3.000000X2.000000*%
%TD*%
%TA.AperFunction,ComponentPad*%
%ADD16R,3.000000X2.000000*%
%TD*%
%TA.AperFunction,ComponentPad*%
%ADD17O,2.500000X1.700000*%
%TD*%
%TA.AperFunction,ComponentPad*%
%ADD18R,2.500000X1.700000*%
%TD*%
%TA.AperFunction,ComponentPad*%
%ADD19O,1.500000X2.200000*%
%TD*%
%TA.AperFunction,ComponentPad*%
%ADD20C,2.500000*%
%TD*%
%TA.AperFunction,WasherPad*%
%ADD21C,3.100000*%
%TD*%
%TA.AperFunction,Conductor*%
%ADD22C,0.800000*%
%TD*%
%TA.AperFunction,Conductor*%
%ADD23C,1.000000*%
%TD*%
G04 APERTURE END LIST*
D10*
%TO.P,R103,1*%
%TO.N,ON*%
X42200000Y17300000D03*
%TO.P,R103,2*%
%TO.N,Net-(R103-Pad2)*%
X52200000Y17300000D03*
%TD*%
D11*
%TO.P,J1,5*%
%TO.N,Net-(J1-Pad5)*%
X7300000Y8580000D03*
%TO.P,J1,4*%
%TO.N,+24V*%
X7300000Y13660000D03*
%TO.P,J1,3*%
%TO.N,GND*%
X7300000Y18740000D03*
%TO.P,J1,2*%
%TO.N,+24V*%
X7300000Y23820000D03*
D12*
%TO.P,J1,1*%
%TO.N,GND*%
X7300000Y28900000D03*
%TD*%
D13*
%TO.P,TR101,1*%
%TO.N,GND*%
X68200000Y15100000D03*
%TO.P,TR101,3*%
%TO.N,Net-(D101-Pad2)*%
X68200000Y19600000D03*
D14*
%TO.P,TR101,2*%
%TO.N,Net-(R103-Pad2)*%
X66200000Y17370000D03*
%TD*%
D11*
%TO.P,K101,11*%
%TO.N,+24V*%
X47200000Y30100000D03*
%TO.P,K101,A2*%
X49200000Y36100000D03*
%TO.P,K101,12*%
%TO.N,N/C*%
X61400000Y36100000D03*
%TO.P,K101,14*%
%TO.N,Net-(J2-Pad4)*%
X61400000Y24100000D03*
%TO.P,K101,A1*%
%TO.N,Net-(D101-Pad2)*%
X49200000Y24100000D03*
%TD*%
D15*
%TO.P,J101,4*%
%TO.N,+5V*%
X58500000Y13300000D03*
%TO.P,J101,3*%
%TO.N,RX*%
X58500000Y10800000D03*
%TO.P,J101,2*%
%TO.N,TX*%
X58500000Y8300000D03*
D16*
%TO.P,J101,1*%
%TO.N,GND*%
X58500000Y5800000D03*
%TD*%
D13*
%TO.P,D101,1*%
%TO.N,+24V*%
X42900000Y33810000D03*
%TO.P,D101,2*%
%TO.N,Net-(D101-Pad2)*%
X42900000Y26190000D03*
%TD*%
D17*
%TO.P,J2,4*%
%TO.N,Net-(J2-Pad4)*%
X68800000Y27190000D03*
%TO.P,J2,3*%
%TO.N,N/C*%
X68800000Y29730000D03*
%TO.P,J2,2*%
X68800000Y32270000D03*
D18*
%TO.P,J2,1*%
%TO.N,+24V*%
X68800000Y34810000D03*
%TD*%
D10*
%TO.P,R102,1*%
%TO.N,SIG*%
X27300000Y15700000D03*
%TO.P,R102,2*%
%TO.N,GND*%
X17300000Y15700000D03*
%TD*%
%TO.P,R101,1*%
%TO.N,Net-(J1-Pad5)*%
X17300000Y11300000D03*
%TO.P,R101,2*%
%TO.N,SIG*%
X27300000Y11300000D03*
%TD*%
D19*
%TO.P,U2,8*%
%TO.N,+5V*%
X33490000Y13810000D03*
%TO.P,U2,7*%
%TO.N,SIG*%
X36030000Y13810000D03*
%TO.P,U2,6*%
%TO.N,ON*%
X38570000Y13810000D03*
%TO.P,U2,5*%
%TO.N,RX*%
X41110000Y13810000D03*
%TO.P,U2,4*%
%TO.N,GND*%
X41110000Y6190000D03*
%TO.P,U2,3*%
%TO.N,TX*%
X38570000Y6190000D03*
%TO.P,U2,2*%
%TO.N,N/C*%
X36030000Y6190000D03*
%TO.P,U2,1*%
X33490000Y6190000D03*
%TD*%
D20*
%TO.P,U1,4*%
%TO.N,+5V*%
X15850000Y37000000D03*
%TO.P,U1,3*%
%TO.N,GND*%
X15850000Y23800000D03*
%TO.P,U1,2*%
%TO.N,Net-(J2-Pad4)*%
X34350000Y37000000D03*
%TO.P,U1,1*%
%TO.N,GND*%
X34350000Y23800000D03*
%TD*%
D21*
%TO.P,E1,*%
%TO.N,*%
X3400000Y38300000D03*
X71700000Y38300000D03*
X71700000Y1800000D03*
X3400000Y1800000D03*
%TD*%
D22*
%TO.N,Net-(J1-Pad5)*%
X7300000Y8580000D02*
X17280000Y8580000D01*
X17300000Y8600000D02*
X17300000Y11300000D01*
X17280000Y8580000D02*
X17300000Y8600000D01*
D23*
%TO.N,+24V*%
X7300000Y23820000D02*
X2520000Y23820000D01*
X2520000Y23820000D02*
X2300000Y23600000D01*
X2300000Y23600000D02*
X2300000Y13500000D01*
X7140000Y13500000D02*
X7300000Y13660000D01*
X2300000Y13500000D02*
X7140000Y13500000D01*
X72900000Y21600000D02*
X73100000Y21400000D01*
X55500000Y21600000D02*
X72900000Y21600000D01*
X49200000Y36100000D02*
X53300000Y36100000D01*
X53800000Y35600000D02*
X53800000Y30100000D01*
X53300000Y36100000D02*
X53800000Y35600000D01*
X47100000Y30000000D02*
X47200000Y30100000D01*
X73100000Y21400000D02*
X73100000Y34700000D01*
X73100000Y34700000D02*
X72990000Y34810000D01*
X72990000Y34810000D02*
X68800000Y34810000D01*
X47200000Y30100000D02*
X53800000Y30100000D01*
X47200000Y30100000D02*
X43000000Y30100000D01*
X42900000Y30200000D02*
X42900000Y33810000D01*
X43000000Y30100000D02*
X42900000Y30200000D01*
X65600000Y9500000D02*
X67400000Y11300000D01*
X67400000Y11300000D02*
X73100000Y11300000D01*
X65600000Y1800000D02*
X65600000Y9500000D01*
X17449998Y5950002D02*
X17449998Y1800000D01*
X17449998Y1800000D02*
X65600000Y1800000D01*
X2349998Y5950002D02*
X17449998Y5950002D01*
X2300000Y6000000D02*
X2349998Y5950002D01*
X2300000Y13500000D02*
X2300000Y6000000D01*
X53800000Y30100000D02*
X53800000Y23300000D01*
X53800000Y23300000D02*
X55500000Y21600000D01*
X73100000Y11300000D02*
X73100000Y21400000D01*
D22*
%TO.N,GND*%
X17280000Y15480000D02*
X17300000Y15500000D01*
D23*
X22390000Y3910000D02*
X21900000Y4400000D01*
X21900000Y4400000D02*
X21900000Y10500000D01*
X41110000Y3910000D02*
X22390000Y3910000D01*
X41110000Y6190000D02*
X41110000Y3910000D01*
X21660000Y18740000D02*
X21900000Y18500000D01*
X12700000Y18880000D02*
X12840000Y18740000D01*
X12840000Y18740000D02*
X21660000Y18740000D01*
X7300000Y18740000D02*
X12840000Y18740000D01*
X7300000Y28900000D02*
X12700000Y28900000D01*
X41110000Y3910000D02*
X46190000Y3910000D01*
X67900000Y14800000D02*
X68200000Y15100000D01*
X58600000Y5900000D02*
X58500000Y5800000D01*
X62300000Y5900000D02*
X58600000Y5900000D01*
X21600000Y15700000D02*
X21900000Y15400000D01*
X17300000Y15700000D02*
X21600000Y15700000D01*
X21900000Y15400000D02*
X21900000Y10500000D01*
X21900000Y18500000D02*
X21900000Y15400000D01*
X46190000Y3910000D02*
X62290000Y3910000D01*
X62300000Y3920000D02*
X62300000Y5900000D01*
X62290000Y3910000D02*
X62300000Y3920000D01*
X12900000Y23800000D02*
X12700000Y24000000D01*
X15850000Y23800000D02*
X12900000Y23800000D01*
X12700000Y24000000D02*
X12700000Y18880000D01*
X12700000Y28900000D02*
X12700000Y24000000D01*
X34350000Y23800000D02*
X15850000Y23800000D01*
X62300000Y11200000D02*
X66200000Y15100000D01*
X62300000Y5900000D02*
X62300000Y11200000D01*
X66200000Y15100000D02*
X68200000Y15100000D01*
%TO.N,+5V*%
X46100000Y13400000D02*
X46100000Y19900000D01*
X46200000Y13300000D02*
X46100000Y13400000D01*
X58500000Y13300000D02*
X46200000Y13300000D01*
X15850000Y37000000D02*
X15850000Y31750000D01*
X15850000Y31750000D02*
X15900000Y31700000D01*
X15900000Y31700000D02*
X38400000Y31700000D01*
X33500000Y13820000D02*
X33490000Y13810000D01*
X33500000Y19900000D02*
X33500000Y13820000D01*
X38400000Y31700000D02*
X38400000Y19900000D01*
X38400000Y19900000D02*
X33500000Y19900000D01*
X46100000Y19900000D02*
X38400000Y19900000D01*
D22*
%TO.N,TX*%
X58359990Y7940010D02*
X58500000Y7800000D01*
X58500000Y8300000D02*
X38800000Y8300000D01*
X38570000Y8070000D02*
X38800000Y8300000D01*
X38570000Y6190000D02*
X38570000Y8070000D01*
%TO.N,RX*%
X58500000Y10800000D02*
X41200000Y10800000D01*
X41110000Y10890000D02*
X41200000Y10800000D01*
X41110000Y13810000D02*
X41110000Y10890000D01*
%TO.N,ON*%
X38570000Y17170000D02*
X38570000Y13810000D01*
X38700000Y17300000D02*
X38570000Y17170000D01*
X42200000Y17300000D02*
X38700000Y17300000D01*
%TO.N,SIG*%
X27300000Y15700000D02*
X27300000Y11300000D01*
X36000000Y13780000D02*
X36030000Y13810000D01*
X36000000Y12100000D02*
X36000000Y13780000D01*
X35200000Y11300000D02*
X36000000Y12100000D01*
X27300000Y11300000D02*
X35200000Y11300000D01*
D23*
%TO.N,Net-(J2-Pad4)*%
X68790000Y27200000D02*
X68800000Y27190000D01*
X61400000Y27080000D02*
X61290000Y27190000D01*
X61400000Y24100000D02*
X61400000Y27080000D01*
X68800000Y27190000D02*
X61290000Y27190000D01*
X57000000Y27800000D02*
X57610000Y27190000D01*
X57610000Y27190000D02*
X61290000Y27190000D01*
X57000000Y38700000D02*
X57000000Y27800000D01*
X39000000Y38700000D02*
X57000000Y38700000D01*
X37300000Y37000000D02*
X39000000Y38700000D01*
X34350000Y37000000D02*
X37300000Y37000000D01*
D22*
%TO.N,Net-(D101-Pad2)*%
X50500000Y19600000D02*
X68200000Y19600000D01*
X50500000Y19600000D02*
X49300000Y19600000D01*
X49200000Y19700000D02*
X49300000Y19600000D01*
X49200000Y24100000D02*
X49200000Y19700000D01*
X49190000Y24090000D02*
X49200000Y24100000D01*
X42900000Y26190000D02*
X42900000Y24000000D01*
X49100000Y24000000D02*
X49200000Y24100000D01*
X42900000Y24000000D02*
X49100000Y24000000D01*
%TO.N,Net-(R103-Pad2)*%
X66130000Y17300000D02*
X66200000Y17370000D01*
X52200000Y17300000D02*
X66130000Y17300000D01*
%TD*%
M02*
